<svg width="1184" height="802" viewBox="0 0 1184 802" fill="none" xmlns="http://www.w3.org/2000/svg">
<path d="M173.9 732.504L49.3999 671.704C41.3999 667.704 42.3999 660.704 51.5999 656.104L786.8 303.204C796 298.604 809.9 298.104 817.9 302.104L955.5 361.704C963.5 365.704 962.5 372.704 953.3 377.304L210.5 731.104C198.2 737.204 184.3 737.004 173.9 732.504Z" fill="#1D141D"/>
<path opacity="0.4" d="M1145.5 242.704L1145.2 242.504C1141.5 240.104 1137.6 238.204 1133.5 236.704L865.9 103.904H865.8C845.2 86.2037 816.2 83.2037 784 99.3037C776.3 103.104 768.9 107.904 761.6 113.404L736 115.704C723.6 63.0037 682 40.5037 632.6 65.1037C606.6 78.1037 582.7 102.004 564.1 131.204C540.7 103.004 503.7 95.8037 462 116.604C391.2 151.904 333.8 254.804 333.8 346.404C333.8 346.604 333.8 346.804 333.8 347.104C316.2 341.204 295.2 343.104 272.7 354.304C210.3 385.404 159.7 476.004 159.7 556.704C159.7 607.104 179.4 641.604 209.4 653.004L490.5 794.604C509.6 804.204 533.5 803.604 559.5 790.704L1070.8 535.704C1133.2 504.604 1183.8 414.004 1183.8 333.304C1183.9 289.504 1169 257.704 1145.5 242.704Z" fill="url(#paint0_linear_931_61947)"/>
<path d="M82.2 310.004C33.7 337.504 1 389.604 1 449.304C1 506.204 30.7 556.204 75.4 584.604C77.9 586.604 80.6 588.404 83.4 590.004C85.1 591.004 86.9 591.804 88.7 592.604L202 648.904L245 591.504L651.1 339.304C675.8 327.004 723.3 281.704 723.3 281.704L856.6 97.1037C856.6 97.1037 801.5 47.6037 740.6 35.4037C669.3 21.1037 630.7 33.5036 618.9 42.0036C596.6 19.0036 560.1 0.703636 510.4 1.00364C464.9 1.30364 425.2 25.7037 403.9 62.4037C381 53.0037 356 47.7037 329.8 47.7037C222.4 47.7037 135.4 134.704 135.4 242.104L134.5 285.304L82.2 310.004Z" fill="url(#paint1_linear_931_61947)" stroke="#010101" stroke-miterlimit="10" stroke-linecap="round" stroke-linejoin="round"/>
<path d="M784.1 99.3039C768.1 107.304 752.9 119.204 739.1 133.804C732.7 68.4039 687.5 37.7039 632.7 65.1039C606.7 78.1039 582.8 102.004 564.2 131.204C540.8 103.004 503.8 95.8039 462.1 116.604C391.3 151.904 333.9 254.804 333.9 346.404C333.9 346.604 333.9 346.804 333.9 347.104C316.3 341.204 295.3 343.104 272.8 354.304C210.4 385.404 159.8 476.004 159.8 556.704C159.8 637.404 210.4 677.604 272.8 646.504L784.1 391.504C846.5 360.404 897.1 269.804 897.1 189.104C897 108.404 846.4 68.2039 784.1 99.3039Z" fill="#DFEDE8" stroke="#010101" stroke-miterlimit="10" stroke-linecap="round" stroke-linejoin="round"/>
<path d="M606.2 333.104C605.5 332.704 604.6 332.704 603.6 333.204L380.6 443.404C378.3 444.504 376.4 448.004 376.4 451.104V602.404C376.4 604.204 377 605.504 378 606.004L385.5 609.804L603.6 495.704C605.9 494.604 607.8 491.104 607.8 488.004L613.7 336.804L606.2 333.104Z" fill="#FFF6DB" stroke="#010101" stroke-miterlimit="10" stroke-linecap="round" stroke-linejoin="round"/>
<path d="M377.5 446.504C376.7 447.904 376.3 449.504 376.3 451.104V602.404C376.3 604.204 376.9 605.504 377.9 606.004L385.4 609.804L427.6 466.804" fill="url(#paint2_linear_931_61947)"/>
<path d="M377.5 446.504C376.7 447.904 376.3 449.504 376.3 451.104V602.404C376.3 604.204 376.9 605.504 377.9 606.004L385.4 609.804L427.6 466.804" stroke="#010101" stroke-miterlimit="10" stroke-linecap="round" stroke-linejoin="round"/>
<path d="M611.1 499.504L388.1 609.704C385.8 610.804 383.9 609.304 383.9 606.204V454.904C383.9 451.804 385.8 448.404 388.1 447.204L611.1 337.004C613.4 335.904 615.3 337.404 615.3 340.504V491.804C615.3 494.904 613.4 498.404 611.1 499.504Z" fill="white" stroke="#010101" stroke-miterlimit="10"/>
<path d="M402.199 460.704C403.918 456.514 403.282 452.284 400.778 451.257C398.275 450.23 394.851 452.794 393.132 456.984C391.413 461.174 392.049 465.403 394.553 466.43C397.057 467.458 400.48 464.894 402.199 460.704Z" fill="#F58A6B" stroke="#010101" stroke-miterlimit="10" stroke-linecap="round" stroke-linejoin="round"/>
<path d="M420.037 451.932C421.756 447.742 421.12 443.512 418.616 442.485C416.112 441.458 412.689 444.022 410.97 448.212C409.251 452.402 409.887 456.631 412.391 457.658C414.895 458.686 418.318 456.122 420.037 451.932Z" fill="#FFCE49" stroke="#010101" stroke-miterlimit="10" stroke-linecap="round" stroke-linejoin="round"/>
<path d="M437.913 443.067C439.632 438.877 438.996 434.648 436.492 433.62C433.989 432.593 430.565 435.157 428.846 439.347C427.127 443.537 427.763 447.766 430.267 448.794C432.771 449.821 436.194 447.257 437.913 443.067Z" fill="#62C089" stroke="#010101" stroke-miterlimit="10" stroke-linecap="round" stroke-linejoin="round"/>
<path d="M404.838 461.823C406.558 457.633 405.921 453.403 403.418 452.376C400.914 451.349 397.491 453.913 395.771 458.103C394.052 462.293 394.688 466.522 397.192 467.55C399.696 468.577 403.119 466.013 404.838 461.823Z" fill="#F58A6B" stroke="#010101" stroke-miterlimit="10" stroke-linecap="round" stroke-linejoin="round"/>
<path d="M422.714 452.959C424.433 448.769 423.797 444.539 421.293 443.512C418.789 442.485 415.366 445.049 413.647 449.238C411.928 453.428 412.564 457.658 415.068 458.685C417.571 459.713 420.995 457.149 422.714 452.959Z" fill="#FFCE49" stroke="#010101" stroke-miterlimit="10" stroke-linecap="round" stroke-linejoin="round"/>
<path d="M440.552 444.186C442.271 439.996 441.635 435.767 439.131 434.739C436.627 433.712 433.204 436.276 431.485 440.466C429.766 444.656 430.402 448.886 432.906 449.913C435.409 450.94 438.833 448.376 440.552 444.186Z" fill="#62C089" stroke="#010101" stroke-miterlimit="10" stroke-linecap="round" stroke-linejoin="round"/>
<path d="M588.2 407.904L404.3 498.204C401.7 499.504 399.5 498.104 399.5 495.004C399.5 492.004 401.6 488.404 404.3 487.104L588.2 396.804C590.8 395.504 593 396.904 593 400.004C593 403.104 590.8 406.604 588.2 407.904Z" fill="#62C089" stroke="#010101" stroke-miterlimit="10" stroke-linecap="round" stroke-linejoin="round"/>
<path d="M588.2 396.804L532.7 424.104V435.204L588.2 407.904C590.8 406.604 593 403.104 593 400.004C593 397.004 590.8 395.604 588.2 396.804Z" fill="white" stroke="#010101" stroke-miterlimit="10" stroke-linecap="round" stroke-linejoin="round"/>
<path d="M407.741 516.034V517.852L401.25 521.044V519.227L407.741 516.034ZM403.142 514.952L405.066 514.006V527.31C405.066 527.916 405.145 528.331 405.303 528.556C405.466 528.773 405.672 528.871 405.922 528.851C406.178 528.823 406.447 528.739 406.73 528.6C406.942 528.495 407.116 528.398 407.251 528.307C407.387 528.21 407.496 528.132 407.578 528.074L407.969 529.808C407.839 529.926 407.656 530.07 407.423 530.24C407.189 530.415 406.893 530.591 406.534 530.768C405.99 531.035 405.457 531.167 404.936 531.163C404.419 531.157 403.99 530.971 403.647 530.607C403.31 530.239 403.142 529.65 403.142 528.838V514.952ZM415.752 526.343C414.546 526.936 413.505 527.152 412.629 526.988C411.759 526.816 411.088 526.311 410.615 525.471C410.148 524.623 409.914 523.483 409.914 522.054C409.914 520.624 410.148 519.249 410.615 517.928C411.088 516.599 411.746 515.422 412.589 514.395C413.437 513.36 414.426 512.565 415.557 512.008C416.209 511.688 416.853 511.492 417.489 511.421C418.125 511.351 418.704 511.46 419.226 511.748C419.748 512.031 420.164 512.541 420.474 513.279C420.784 514.018 420.939 515.038 420.939 516.34V517.249L411.284 521.998V520.144L418.982 516.358C418.982 515.57 418.84 514.937 418.558 514.458C418.28 513.977 417.883 513.684 417.367 513.581C416.856 513.475 416.253 513.593 415.557 513.935C414.79 514.312 414.127 514.85 413.567 515.55C413.013 516.24 412.586 516.996 412.287 517.815C411.988 518.635 411.838 519.429 411.838 520.198V521.434C411.838 522.488 412.001 523.302 412.328 523.874C412.659 524.438 413.119 524.767 413.706 524.86C414.293 524.946 414.975 524.799 415.752 524.416C416.258 524.168 416.715 523.864 417.122 523.506C417.536 523.139 417.892 522.722 418.191 522.254C418.49 521.78 418.721 521.26 418.884 520.695L420.743 520.362C420.547 521.161 420.218 521.941 419.756 522.702C419.294 523.456 418.723 524.149 418.044 524.78C417.364 525.405 416.6 525.926 415.752 526.343ZM432.738 506.866L431.009 508.261C430.901 507.994 430.74 507.76 430.528 507.562C430.322 507.354 430.039 507.239 429.68 507.216C429.321 507.192 428.862 507.318 428.302 507.593C427.536 507.97 426.897 508.482 426.386 509.127C425.88 509.763 425.627 510.381 425.627 510.981C425.627 511.514 425.801 511.85 426.149 511.987C426.497 512.125 427.041 512.115 427.78 511.958L429.639 511.552C430.759 511.304 431.594 511.357 432.143 511.711C432.692 512.059 432.966 512.721 432.966 513.696C432.966 514.496 432.76 515.312 432.347 516.145C431.939 516.976 431.368 517.754 430.634 518.478C429.9 519.203 429.047 519.804 428.074 520.283C426.796 520.911 425.739 521.122 424.902 520.916C424.064 520.71 423.534 520.068 423.312 518.99L425.138 517.583C425.312 518.248 425.641 518.65 426.125 518.788C426.614 518.923 427.253 518.796 428.041 518.409C428.938 517.967 429.65 517.405 430.178 516.722C430.71 516.029 430.977 515.383 430.977 514.784C430.977 514.299 430.824 513.968 430.52 513.791C430.216 513.607 429.748 513.589 429.117 513.735L427.03 514.217C425.883 514.478 425.04 514.423 424.502 514.052C423.969 513.671 423.703 513 423.703 512.036C423.703 511.249 423.901 510.455 424.298 509.654C424.701 508.85 425.247 508.106 425.937 507.421C426.633 506.733 427.421 506.173 428.302 505.74C429.542 505.13 430.515 504.954 431.221 505.213C431.933 505.468 432.439 506.019 432.738 506.866ZM441.31 499.523V501.341L434.819 504.533V502.716L441.31 499.523ZM436.711 498.441L438.636 497.495V510.799C438.636 511.404 438.715 511.82 438.872 512.045C439.035 512.262 439.242 512.36 439.492 512.34C439.747 512.312 440.017 512.228 440.299 512.089C440.511 511.984 440.685 511.887 440.821 511.796C440.957 511.698 441.066 511.621 441.147 511.562L441.539 513.296C441.408 513.415 441.226 513.559 440.992 513.729C440.759 513.904 440.462 514.08 440.104 514.257C439.56 514.524 439.027 514.656 438.505 514.652C437.989 514.646 437.559 514.46 437.217 514.095C436.88 513.728 436.711 513.138 436.711 512.327V498.441ZM444.205 512.058V498.099L446.13 497.153V511.111L444.205 512.058ZM445.184 495.292C444.809 495.476 444.485 495.493 444.213 495.342C443.947 495.188 443.814 494.911 443.814 494.512C443.814 494.112 443.947 493.704 444.213 493.288C444.485 492.87 444.809 492.568 445.184 492.384C445.559 492.199 445.88 492.184 446.146 492.338C446.418 492.489 446.554 492.764 446.554 493.164C446.554 493.564 446.418 493.973 446.146 494.391C445.88 494.807 445.559 495.107 445.184 495.292ZM451.579 500.034V508.431L449.654 509.378V495.419L451.514 494.505V496.686L451.677 496.606C451.97 495.752 452.416 494.964 453.014 494.239C453.612 493.509 454.384 492.911 455.33 492.446C456.178 492.029 456.92 491.858 457.556 491.933C458.192 492.002 458.687 492.34 459.04 492.948C459.393 493.549 459.57 494.444 459.57 495.631V504.5L457.646 505.447V496.723C457.646 495.627 457.39 494.898 456.879 494.538C456.368 494.171 455.667 494.207 454.775 494.645C454.161 494.947 453.612 495.366 453.128 495.901C452.65 496.433 452.272 497.052 451.995 497.758C451.717 498.464 451.579 499.222 451.579 500.034ZM468.142 505.809C467.213 506.267 466.414 506.526 465.745 506.589C465.076 506.657 464.519 506.586 464.073 506.375C463.633 506.167 463.282 505.885 463.021 505.529L464.554 503.576C464.728 503.744 464.949 503.927 465.215 504.123C465.481 504.325 465.846 504.434 466.308 504.449C466.775 504.467 467.387 504.291 468.142 503.919C469.154 503.422 469.988 502.739 470.646 501.87C471.304 501.001 471.633 499.985 471.633 498.822V495.987L471.469 496.067C471.328 496.391 471.127 496.805 470.866 497.309C470.611 497.804 470.241 498.316 469.757 498.845C469.279 499.365 468.632 499.825 467.816 500.227C466.805 500.724 465.897 500.904 465.093 500.766C464.294 500.626 463.66 500.162 463.193 499.375C462.731 498.584 462.5 497.462 462.5 496.008C462.5 494.578 462.725 493.222 463.176 491.94C463.628 490.652 464.256 489.519 465.06 488.542C465.865 487.558 466.794 486.807 467.849 486.289C468.664 485.888 469.311 485.721 469.79 485.788C470.273 485.847 470.643 486.005 470.899 486.261C471.16 486.508 471.361 486.718 471.502 486.891L471.698 486.795V484.577L473.557 483.663V498.021C473.557 499.22 473.312 500.316 472.823 501.308C472.339 502.303 471.687 503.178 470.866 503.934C470.051 504.692 469.143 505.317 468.142 505.809ZM468.077 498.172C468.849 497.792 469.502 497.274 470.034 496.618C470.567 495.963 470.972 495.197 471.249 494.321C471.527 493.446 471.665 492.493 471.665 491.463C471.665 490.458 471.529 489.637 471.257 489.001C470.986 488.366 470.583 487.961 470.051 487.787C469.518 487.612 468.86 487.718 468.077 488.103C467.262 488.504 466.582 489.068 466.039 489.796C465.5 490.521 465.095 491.338 464.824 492.248C464.557 493.154 464.424 494.08 464.424 495.025C464.424 495.994 464.56 496.785 464.832 497.396C465.109 497.999 465.517 498.38 466.055 498.539C466.599 498.69 467.273 498.567 468.077 498.172ZM478.482 495.344C478.08 495.542 477.735 495.551 477.447 495.372C477.158 495.192 477.014 494.879 477.014 494.43C477.014 493.982 477.158 493.526 477.447 493.064C477.735 492.601 478.08 492.27 478.482 492.073C478.884 491.875 479.23 491.865 479.518 492.045C479.806 492.224 479.95 492.538 479.95 492.986C479.95 493.283 479.882 493.589 479.746 493.904C479.616 494.217 479.439 494.504 479.216 494.765C478.999 495.017 478.754 495.21 478.482 495.344ZM484.806 492.234C484.404 492.432 484.058 492.441 483.77 492.261C483.482 492.082 483.338 491.768 483.338 491.32C483.338 490.872 483.482 490.416 483.77 489.953C484.058 489.49 484.404 489.16 484.806 488.962C485.208 488.764 485.553 488.755 485.842 488.935C486.13 489.114 486.274 489.428 486.274 489.876C486.274 490.173 486.206 490.479 486.07 490.794C485.939 491.107 485.763 491.394 485.54 491.655C485.322 491.907 485.078 492.1 484.806 492.234ZM491.13 489.123C490.727 489.321 490.382 489.33 490.094 489.151C489.806 488.972 489.662 488.658 489.662 488.21C489.662 487.761 489.806 487.306 490.094 486.843C490.382 486.38 490.727 486.05 491.13 485.852C491.532 485.654 491.877 485.645 492.165 485.824C492.453 486.004 492.597 486.317 492.597 486.766C492.597 487.063 492.53 487.369 492.394 487.684C492.263 487.996 492.086 488.283 491.864 488.544C491.646 488.797 491.402 488.99 491.13 489.123Z" fill="#010101"/>
<path d="M840.2 219.004C839.3 218.504 838.2 218.504 836.9 219.104L683.9 295.704C681 297.104 678.6 301.504 678.6 305.304V541.104C678.6 543.304 679.4 544.904 680.6 545.604L690 550.304L836.8 468.904C839.7 467.504 842.1 463.104 842.1 459.304L849.5 223.704L840.2 219.004Z" fill="#FFF6DB" stroke="#010101" stroke-miterlimit="10" stroke-linecap="round" stroke-linejoin="round"/>
<path d="M680.2 299.604C679.2 301.304 678.7 303.404 678.7 305.304V541.104C678.7 543.304 679.5 544.904 680.7 545.604L690.1 550.304L742.7 324.904" fill="url(#paint3_linear_931_61947)"/>
<path d="M680.2 299.604C679.2 301.304 678.7 303.404 678.7 305.304V541.104C678.7 543.304 679.5 544.904 680.7 545.604L690.1 550.304L742.7 324.904" stroke="#010101" stroke-miterlimit="10" stroke-linecap="round" stroke-linejoin="round"/>
<path d="M846.4 473.704L693.4 550.304C690.5 551.704 688.1 549.804 688.1 545.904V310.104C688.1 306.304 690.5 301.904 693.4 300.504L846.4 223.904C849.3 222.504 851.7 224.404 851.7 228.304V464.104C851.6 467.904 849.3 472.304 846.4 473.704Z" fill="white" stroke="#010101" stroke-miterlimit="10"/>
<path d="M711.085 317.415C713.244 312.152 712.426 306.832 709.258 305.532C706.09 304.232 701.771 307.445 699.612 312.708C697.453 317.971 698.27 323.291 701.438 324.591C704.606 325.891 708.925 322.678 711.085 317.415Z" fill="#F58A6B" stroke="#010101" stroke-miterlimit="10" stroke-linecap="round" stroke-linejoin="round"/>
<path d="M733.344 306.371C735.504 301.108 734.686 295.788 731.518 294.488C728.35 293.188 724.031 296.401 721.872 301.664C719.712 306.927 720.53 312.247 723.698 313.547C726.866 314.847 731.185 311.634 733.344 306.371Z" fill="#FFCE49" stroke="#010101" stroke-miterlimit="10" stroke-linecap="round" stroke-linejoin="round"/>
<path d="M755.566 295.42C757.725 290.157 756.908 284.836 753.74 283.537C750.572 282.237 746.253 285.45 744.093 290.713C741.934 295.976 742.752 301.296 745.92 302.596C749.088 303.896 753.407 300.683 755.566 295.42Z" fill="#62C089" stroke="#010101" stroke-miterlimit="10" stroke-linecap="round" stroke-linejoin="round"/>
<path d="M714.331 318.73C716.49 313.467 715.673 308.146 712.505 306.847C709.337 305.547 705.018 308.76 702.859 314.023C700.699 319.286 701.517 324.606 704.685 325.906C707.853 327.206 712.172 323.993 714.331 318.73Z" fill="#F58A6B" stroke="#010101" stroke-miterlimit="10" stroke-linecap="round" stroke-linejoin="round"/>
<path d="M736.683 307.724C738.843 302.461 738.025 297.14 734.857 295.841C731.689 294.541 727.37 297.754 725.211 303.017C723.051 308.28 723.869 313.6 727.037 314.9C730.205 316.2 734.524 312.987 736.683 307.724Z" fill="#FFCE49" stroke="#010101" stroke-miterlimit="10" stroke-linecap="round" stroke-linejoin="round"/>
<path d="M758.905 296.772C761.064 291.509 760.246 286.189 757.078 284.889C753.91 283.589 749.592 286.802 747.432 292.065C745.273 297.328 746.091 302.648 749.259 303.948C752.427 305.248 756.745 302.035 758.905 296.772Z" fill="#62C089" stroke="#010101" stroke-miterlimit="10" stroke-linecap="round" stroke-linejoin="round"/>
<path d="M749.2 344.015L709.3 363.915C707.5 364.815 706 363.715 706 361.515C706 359.315 707.5 356.716 709.3 355.816L749.2 335.915C751 335.015 752.5 336.116 752.5 338.316C752.5 340.516 751 343.115 749.2 344.015Z" fill="#D0D3D3" stroke="#010101" stroke-miterlimit="10" stroke-linecap="round" stroke-linejoin="round"/>
<path d="M772.5 349.915L732.6 369.815C730.8 370.715 729.3 369.615 729.3 367.415C729.3 365.215 730.8 362.614 732.6 361.714L772.5 341.815C774.3 340.915 775.8 342.014 775.8 344.214C775.8 346.414 774.3 349.015 772.5 349.915Z" fill="#D0D3D3" stroke="#010101" stroke-miterlimit="10" stroke-linecap="round" stroke-linejoin="round"/>
<path d="M803.2 334.616L787.8 342.316C786 343.216 784.5 342.115 784.5 339.915C784.5 337.715 786 335.115 787.8 334.215L803.2 326.515C805 325.615 806.5 326.715 806.5 328.915C806.5 331.115 805 333.716 803.2 334.616Z" fill="#D0D3D3" stroke="#010101" stroke-miterlimit="10" stroke-linecap="round" stroke-linejoin="round"/>
<path d="M831.6 320.415L816.2 328.115C814.4 329.015 812.9 327.914 812.9 325.714C812.9 323.514 814.4 320.914 816.2 320.014L831.6 312.315C833.4 311.415 834.9 312.514 834.9 314.714C834.9 316.914 833.4 319.515 831.6 320.415Z" fill="#D0D3D3" stroke="#010101" stroke-miterlimit="10" stroke-linecap="round" stroke-linejoin="round"/>
<path d="M764.3 371.515L732.5 387.415C730.7 388.315 729.2 387.215 729.2 385.015C729.2 382.815 730.7 380.216 732.5 379.316L764.3 363.415C766.1 362.515 767.6 363.616 767.6 365.816C767.6 368.016 766.1 370.615 764.3 371.515Z" fill="#D0D3D3" stroke="#010101" stroke-miterlimit="10" stroke-linecap="round" stroke-linejoin="round"/>
<path d="M795.1 356.214L779.7 363.915C777.9 364.815 776.4 363.714 776.4 361.514C776.4 359.314 777.9 356.715 779.7 355.815L795.1 348.115C796.9 347.215 798.4 348.314 798.4 350.514C798.4 352.714 796.9 355.314 795.1 356.214Z" fill="#D0D3D3" stroke="#010101" stroke-miterlimit="10" stroke-linecap="round" stroke-linejoin="round"/>
<path d="M749.2 413.316L709.3 433.215C707.5 434.115 706 433.016 706 430.816C706 428.616 707.5 426.016 709.3 425.116L749.2 405.215C751 404.315 752.5 405.416 752.5 407.616C752.5 409.816 751 412.416 749.2 413.316Z" fill="#D0D3D3" stroke="#010101" stroke-miterlimit="10" stroke-linecap="round" stroke-linejoin="round"/>
<path d="M764.3 388.214L732.5 404.115C730.7 405.015 729.2 403.914 729.2 401.714C729.2 399.514 730.7 396.914 732.5 396.014L764.3 380.115C766.1 379.215 767.6 380.314 767.6 382.514C767.6 384.714 766.1 387.314 764.3 388.214Z" fill="#D0D3D3" stroke="#010101" stroke-miterlimit="10" stroke-linecap="round" stroke-linejoin="round"/>
<path d="M809.8 365.816L779.7 380.616C777.9 381.516 776.4 380.415 776.4 378.215C776.4 376.015 777.9 373.415 779.7 372.515L809.8 357.715C811.6 356.815 813.1 357.916 813.1 360.116C813.1 362.316 811.6 364.916 809.8 365.816Z" fill="#D0D3D3" stroke="#010101" stroke-miterlimit="10" stroke-linecap="round" stroke-linejoin="round"/>
<path d="M1004.5 209.504C1003.6 209.004 1002.5 209.004 1001.2 209.604L848.2 286.204C845.3 287.604 842.9 292.004 842.9 295.804V531.604C842.9 533.804 843.7 535.404 844.9 536.104L854.3 540.804L1001.1 459.404C1004 458.004 1006.4 453.604 1006.4 449.804L1013.8 214.204L1004.5 209.504Z" fill="#FFF6DB" stroke="#010101" stroke-miterlimit="10" stroke-linecap="round" stroke-linejoin="round"/>
<path d="M844.6 290.104C843.6 291.804 843.1 293.904 843.1 295.804V531.604C843.1 533.804 843.9 535.404 845.1 536.104L854.5 540.804L907.1 315.404" fill="url(#paint4_linear_931_61947)"/>
<path d="M844.6 290.104C843.6 291.804 843.1 293.904 843.1 295.804V531.604C843.1 533.804 843.9 535.404 845.1 536.104L854.5 540.804L907.1 315.404" stroke="#010101" stroke-miterlimit="10" stroke-linecap="round" stroke-linejoin="round"/>
<path d="M1010.7 464.204L857.7 540.804C854.8 542.204 852.4 540.304 852.4 536.404V300.604C852.4 296.804 854.8 292.404 857.7 291.004L1010.7 214.404C1013.6 213.004 1016 214.904 1016 218.804V454.604C1016 458.404 1013.6 462.804 1010.7 464.204Z" fill="white" stroke="#010101" stroke-miterlimit="10"/>
<path d="M875.471 307.881C877.631 302.618 876.813 297.298 873.645 295.998C870.477 294.698 866.158 297.911 863.999 303.174C861.839 308.437 862.657 313.757 865.825 315.057C868.993 316.357 873.312 313.144 875.471 307.881Z" fill="#F58A6B" stroke="#010101" stroke-miterlimit="10" stroke-linecap="round" stroke-linejoin="round"/>
<path d="M897.731 296.837C899.89 291.574 899.073 286.254 895.905 284.954C892.737 283.654 888.418 286.867 886.258 292.13C884.099 297.393 884.917 302.713 888.085 304.013C891.253 305.313 895.572 302.1 897.731 296.837Z" fill="#FFCE49" stroke="#010101" stroke-miterlimit="10" stroke-linecap="round" stroke-linejoin="round"/>
<path d="M919.953 285.886C922.112 280.623 921.294 275.303 918.126 274.003C914.958 272.703 910.64 275.916 908.48 281.179C906.321 286.442 907.138 291.762 910.307 293.062C913.475 294.362 917.793 291.149 919.953 285.886Z" fill="#62C089" stroke="#010101" stroke-miterlimit="10" stroke-linecap="round" stroke-linejoin="round"/>
<path d="M878.718 309.196C880.877 303.933 880.059 298.612 876.891 297.312C873.723 296.013 869.405 299.226 867.245 304.489C865.086 309.752 865.904 315.072 869.072 316.372C872.24 317.671 876.558 314.459 878.718 309.196Z" fill="#F58A6B" stroke="#010101" stroke-miterlimit="10" stroke-linecap="round" stroke-linejoin="round"/>
<path d="M901.032 298.282C903.191 293.019 902.373 287.699 899.205 286.399C896.037 285.1 891.719 288.312 889.559 293.575C887.4 298.838 888.218 304.159 891.386 305.458C894.554 306.758 898.872 303.545 901.032 298.282Z" fill="#FFCE49" stroke="#010101" stroke-miterlimit="10" stroke-linecap="round" stroke-linejoin="round"/>
<path d="M923.292 287.239C925.451 281.976 924.633 276.655 921.465 275.355C918.297 274.056 913.978 277.269 911.819 282.532C909.66 287.795 910.477 293.115 913.645 294.415C916.813 295.714 921.132 292.502 923.292 287.239Z" fill="#62C089" stroke="#010101" stroke-miterlimit="10" stroke-linecap="round" stroke-linejoin="round"/>
<path d="M996.3 359.904C996.3 402.404 968.5 451.304 934.3 469.004C900 486.804 872.3 466.704 872.3 424.204C872.3 381.704 900.1 332.804 934.3 315.104C968.5 297.304 996.3 317.404 996.3 359.904Z" fill="#8BB1DE" stroke="#010101" stroke-miterlimit="10"/>
<path d="M934.2 319.104C933.7 319.404 933.3 320.104 933.3 320.704V333.604C933.3 334.204 933.7 334.504 934.2 334.304C934.7 334.004 935.1 333.304 935.1 332.704V319.804C935.1 319.204 934.7 318.904 934.2 319.104ZM928.3 322.704C928.2 322.704 928.2 322.804 928.1 322.804C927.6 323.104 927.2 323.904 927.3 324.504L927.8 329.704C927.9 330.304 928.3 330.504 928.8 330.204C929.3 329.904 929.7 329.104 929.6 328.504L929.1 323.304C929.1 322.704 928.7 322.504 928.3 322.704ZM940.2 316.504C939.8 316.804 939.4 317.404 939.4 317.904L938.9 323.604C938.8 324.204 939.2 324.604 939.7 324.404C940.2 324.204 940.6 323.504 940.7 322.904L941.2 317.204C941.3 316.604 940.9 316.204 940.4 316.404C940.3 316.404 940.3 316.504 940.2 316.504ZM922.2 326.904C922.1 326.904 922.1 327.004 922 327.004C921.5 327.404 921.2 328.104 921.3 328.704L923.5 340.204C923.6 340.804 924.1 340.904 924.6 340.504C925.1 340.104 925.4 339.404 925.3 338.804L923.1 327.304C923 326.804 922.7 326.704 922.2 326.904ZM946.3 314.404C945.9 314.604 945.5 315.204 945.4 315.804L943.2 329.604C943.1 330.304 943.4 330.704 943.9 330.604C944.4 330.504 944.9 329.804 945 329.204L947.2 315.404C947.3 314.704 947 314.304 946.5 314.404C946.4 314.404 946.3 314.404 946.3 314.404ZM916.4 331.904C916.3 331.904 916.2 332.004 916 332.104C915.5 332.504 915.3 333.304 915.4 333.804L916.8 338.304C917 338.804 917.5 338.904 917.9 338.404C918.4 338.004 918.6 337.204 918.5 336.704L917.1 332.204C917.1 331.904 916.8 331.804 916.4 331.904ZM952 313.504C951.6 313.704 951.3 314.204 951.2 314.704L949.8 320.604C949.6 321.304 949.9 321.804 950.4 321.704C950.9 321.604 951.4 321.104 951.5 320.404L952.9 314.504C953.1 313.804 952.8 313.304 952.3 313.404C952.3 313.304 952.2 313.404 952 313.504ZM910.7 337.504C910.6 337.604 910.5 337.704 910.3 337.804C909.8 338.304 909.6 339.104 909.8 339.504L914 349.104C914.2 349.604 914.7 349.504 915.2 349.004C915.7 348.504 915.9 347.704 915.7 347.304L911.5 337.704C911.4 337.404 911.1 337.304 910.7 337.504ZM957.9 313.104C957.5 313.304 957.2 313.704 957.1 314.204L952.8 328.204C952.6 328.904 952.8 329.404 953.3 329.404C953.8 329.404 954.3 328.904 954.5 328.204L958.8 314.204C959 313.504 958.8 313.004 958.3 313.004C958.1 313.004 958 313.004 957.9 313.104ZM905.4 343.804C905.2 343.904 905 344.004 904.9 344.204C904.5 344.704 904.3 345.504 904.6 345.904L906.8 349.504C907.1 349.904 907.6 349.804 908 349.304C908.4 348.804 908.6 348.004 908.3 347.604L906.1 344.004C906 343.704 905.7 343.704 905.4 343.804ZM963.1 313.804C962.8 314.004 962.5 314.304 962.4 314.704L960.2 320.604C959.9 321.304 960.1 321.904 960.5 322.004C960.9 322.104 961.5 321.604 961.7 320.904L963.9 315.004C964.2 314.304 964 313.704 963.6 313.604C963.5 313.704 963.3 313.704 963.1 313.804ZM900.2 350.504C900 350.604 899.9 350.804 899.7 351.004C899.3 351.604 899.2 352.304 899.5 352.704L905.6 360.004C905.9 360.404 906.5 360.204 906.9 359.604C907.3 359.004 907.4 358.304 907.1 357.904L901 350.604C900.8 350.304 900.5 350.304 900.2 350.504ZM968.3 315.204C968 315.304 967.7 315.604 967.5 316.104L961.4 329.804C961.1 330.504 961.2 331.104 961.6 331.304C962 331.504 962.6 331.104 962.9 330.404L969 316.704C969.3 316.004 969.2 315.404 968.8 315.204C968.7 315.104 968.5 315.104 968.3 315.204ZM895.6 357.704C895.4 357.804 895.1 358.004 894.9 358.304C894.5 358.904 894.5 359.604 894.8 359.904L897.7 362.404C898 362.704 898.6 362.404 899 361.804C899.4 361.204 899.4 360.504 899.1 360.204L896.2 357.704C896.1 357.604 895.8 357.604 895.6 357.704ZM972.9 317.604C972.7 317.704 972.4 318.004 972.3 318.304L969.4 323.904C969.1 324.504 969.1 325.204 969.5 325.504C969.9 325.704 970.4 325.404 970.8 324.804L973.7 319.204C974 318.604 974 317.904 973.6 317.604C973.4 317.404 973.1 317.404 972.9 317.604ZM891.2 365.204C891 365.304 890.7 365.604 890.6 365.904C890.3 366.504 890.3 367.204 890.7 367.404L898.5 372.004C898.9 372.204 899.4 371.904 899.8 371.304C900.1 370.704 900.1 370.004 899.7 369.804L891.9 365.204C891.6 365.104 891.4 365.104 891.2 365.204ZM977.4 320.604C977.2 320.704 976.9 320.904 976.7 321.204L968.9 333.904C968.5 334.504 968.5 335.204 968.8 335.504C969.1 335.804 969.7 335.504 970.1 334.904L977.9 322.204C978.3 321.604 978.3 320.904 978 320.604C977.8 320.504 977.6 320.504 977.4 320.604ZM887.5 373.004C887.2 373.104 886.9 373.404 886.7 373.904C886.4 374.604 886.5 375.204 886.9 375.404L890.5 376.804C890.9 377.004 891.5 376.604 891.8 375.904C892.1 375.204 892 374.604 891.6 374.404L888 373.004C887.8 372.904 887.7 373.004 887.5 373.004ZM981 324.504C980.8 324.604 980.7 324.804 980.5 325.004L976.9 330.004C976.5 330.604 976.4 331.304 976.7 331.704C977 332.104 977.6 331.904 978 331.304L981.6 326.304C982 325.704 982.1 325.004 981.8 324.604C981.6 324.404 981.3 324.404 981 324.504ZM884 381.104C883.7 381.304 883.4 381.604 883.3 382.004C883 382.704 883.2 383.304 883.6 383.404L892.6 385.204C893 385.304 893.6 384.804 893.8 384.104C894.1 383.404 893.9 382.804 893.5 382.704L884.5 380.904C884.4 380.904 884.2 381.004 884 381.104ZM984.5 329.004C984.3 329.104 984.1 329.204 984 329.404L975 340.604C974.6 341.104 974.4 341.904 974.7 342.304C975 342.704 975.5 342.604 975.9 342.104L984.9 330.904C985.3 330.404 985.5 329.604 985.2 329.204C985 328.904 984.7 328.904 984.5 329.004ZM881.4 389.104C881 389.304 880.7 389.704 880.6 390.204C880.4 390.904 880.6 391.404 881.1 391.404L885.1 391.504C885.6 391.504 886.1 391.004 886.3 390.304C886.5 389.604 886.3 389.104 885.8 389.104L881.8 389.004C881.7 389.004 881.6 389.104 881.4 389.104ZM987.1 334.304C987 334.404 986.9 334.504 986.7 334.604L982.7 338.904C982.2 339.404 982 340.204 982.2 340.604C982.4 341.004 982.9 341.004 983.4 340.504L987.4 336.204C987.9 335.704 988.1 334.904 987.9 334.504C987.8 334.204 987.4 334.204 987.1 334.304ZM879.1 397.304C878.7 397.504 878.4 398.004 878.3 398.504C878.1 399.204 878.4 399.704 878.9 399.604L888.8 398.504C889.3 398.404 889.8 397.904 889.9 397.204C890.1 396.504 889.8 396.004 889.3 396.104L879.4 397.204C879.4 397.204 879.2 397.204 879.1 397.304ZM989.4 340.104C989.3 340.104 989.2 340.204 989 340.304L979.1 349.404C978.6 349.804 978.4 350.604 978.5 351.104C978.6 351.604 979.2 351.704 979.6 351.204L989.5 342.104C990 341.704 990.2 340.904 990.1 340.404C990.1 340.104 989.7 340.004 989.4 340.104ZM877.7 405.404C877.3 405.604 876.9 406.204 876.8 406.804C876.7 407.504 877 407.904 877.5 407.804L881.8 406.704C882.3 406.604 882.8 405.904 882.9 405.304C883 404.604 882.7 404.204 882.2 404.304L877.9 405.404C877.8 405.304 877.7 405.404 877.7 405.404ZM990.8 346.704C990.7 346.704 990.7 346.804 990.6 346.804L986.3 350.204C985.8 350.604 985.5 351.304 985.6 351.904C985.7 352.504 986.2 352.604 986.7 352.204L991 348.804C991.5 348.404 991.8 347.704 991.7 347.104C991.6 346.604 991.2 346.404 990.8 346.704ZM876.6 413.304C876.2 413.604 875.8 414.204 875.8 414.704C875.7 415.304 876.1 415.704 876.6 415.504L887 411.504C887.5 411.304 887.9 410.604 888 410.004C888.1 409.404 887.7 409.004 887.2 409.204L876.8 413.204C876.7 413.304 876.6 413.304 876.6 413.304ZM991.9 353.604C991.8 353.604 991.8 353.704 991.7 353.704L981.3 360.404C980.8 360.704 980.4 361.504 980.5 362.104C980.6 362.704 981 362.904 981.5 362.604L991.9 355.904C992.4 355.604 992.8 354.804 992.7 354.204C992.7 353.604 992.3 353.404 991.9 353.604ZM876.4 421.004C875.9 421.304 875.5 422.004 875.5 422.604C875.5 423.204 875.9 423.504 876.4 423.304L880.8 421.004C881.3 420.704 881.7 420.004 881.7 419.404C881.7 418.804 881.3 418.504 880.8 418.704L876.4 421.004ZM987.7 363.204C987.2 363.504 986.8 364.204 986.8 364.804C986.8 365.404 987.2 365.704 987.7 365.504L992.1 363.204C992.6 362.904 993 362.204 993 361.604C993 361.004 992.6 360.704 992.1 360.904L987.7 363.204ZM887.1 421.504C887 421.504 887 421.604 886.9 421.604L876.5 428.304C876 428.604 875.6 429.404 875.7 430.004C875.8 430.604 876.2 430.804 876.7 430.504L887.1 423.804C887.6 423.504 888 422.704 887.9 422.104C887.9 421.604 887.5 421.304 887.1 421.504ZM981.4 372.704C981 373.004 980.6 373.604 980.6 374.104C980.5 374.704 980.9 375.104 981.4 374.904L991.8 370.904C992.3 370.704 992.7 370.004 992.8 369.404C992.9 368.804 992.5 368.404 992 368.604L981.6 372.604C981.5 372.604 981.4 372.604 981.4 372.704ZM882 431.904C881.9 431.904 881.9 432.004 881.8 432.004L877.5 435.404C877 435.804 876.7 436.504 876.8 437.104C876.9 437.704 877.4 437.804 877.9 437.404L882.2 434.004C882.7 433.604 883 432.904 882.9 432.304C882.8 431.804 882.4 431.604 882 431.904ZM986.5 377.604C986.1 377.804 985.7 378.404 985.6 379.004C985.5 379.704 985.8 380.104 986.3 380.004L990.6 378.904C991.1 378.804 991.6 378.104 991.7 377.504C991.8 376.804 991.5 376.404 991 376.504L986.7 377.604C986.7 377.504 986.6 377.604 986.5 377.604ZM889.2 432.504C889.1 432.504 889 432.604 888.8 432.704L878.9 441.804C878.4 442.204 878.2 443.004 878.3 443.504C878.4 444.004 879 444.104 879.4 443.604L889.3 434.504C889.8 434.104 890 433.304 889.9 432.804C889.8 432.504 889.5 432.404 889.2 432.504ZM979.3 385.804C978.9 386.004 978.6 386.504 978.5 387.004C978.3 387.704 978.6 388.204 979.1 388.104L989 387.004C989.5 386.904 990 386.404 990.1 385.704C990.3 385.004 990 384.504 989.5 384.604L979.6 385.704C979.5 385.704 979.4 385.704 979.3 385.804ZM885.4 443.304C885.3 443.404 885.2 443.504 885 443.604L881 447.904C880.5 448.404 880.3 449.204 880.5 449.604C880.7 450.104 881.2 450.004 881.7 449.504L885.7 445.204C886.2 444.704 886.4 443.904 886.2 443.504C886.1 443.104 885.7 443.104 885.4 443.304ZM983.1 392.604C982.7 392.804 982.4 393.204 982.3 393.704C982.1 394.404 982.3 394.904 982.8 394.904L986.8 395.004C987.3 395.004 987.8 394.504 988 393.804C988.2 393.104 988 392.604 987.5 392.604L983.5 392.504C983.3 392.504 983.2 392.504 983.1 392.604ZM893.2 441.704C893 441.804 892.8 441.904 892.7 442.104L883.7 453.304C883.3 453.804 883.1 454.604 883.4 455.004C883.7 455.404 884.2 455.304 884.6 454.804L893.6 443.604C894 443.104 894.2 442.304 893.9 441.904C893.8 441.604 893.5 441.604 893.2 441.704ZM975.3 399.104C975 399.304 974.7 399.604 974.6 400.004C974.3 400.704 974.5 401.304 974.9 401.404L983.9 403.204C984.3 403.304 984.9 402.804 985.1 402.104C985.4 401.404 985.2 400.804 984.8 400.704L975.8 398.904C975.6 398.904 975.5 399.004 975.3 399.104ZM890.9 452.304C890.7 452.404 890.6 452.604 890.4 452.804L886.8 457.804C886.4 458.404 886.3 459.104 886.6 459.504C886.9 459.904 887.5 459.704 887.9 459.104L891.5 454.104C891.9 453.504 892 452.804 891.7 452.404C891.5 452.204 891.2 452.204 890.9 452.304ZM977.5 407.504C977.2 407.604 976.9 407.904 976.7 408.404C976.4 409.104 976.5 409.704 976.9 409.904L980.5 411.304C980.9 411.504 981.5 411.104 981.8 410.404C982.1 409.704 982 409.104 981.6 408.904L978 407.504C977.9 407.404 977.7 407.404 977.5 407.504ZM899 448.604C898.8 448.704 898.5 448.904 898.3 449.204L890.5 461.904C890.1 462.504 890.1 463.204 890.4 463.504C890.7 463.804 891.3 463.504 891.7 462.904L899.5 450.204C899.9 449.604 899.9 448.904 899.6 448.604C899.4 448.504 899.2 448.504 899 448.604ZM969.5 412.004C969.3 412.104 969 412.404 968.9 412.704C968.6 413.304 968.6 414.004 969 414.204L976.8 418.804C977.2 419.004 977.7 418.704 978.1 418.104C978.4 417.504 978.4 416.804 978 416.604L970.2 412.004C969.9 411.904 969.7 411.904 969.5 412.004ZM906.4 453.004C906.1 453.104 905.8 453.404 905.6 453.904L899.5 467.604C899.2 468.304 899.3 468.904 899.7 469.104C900.1 469.304 900.7 468.904 901 468.204L907.1 454.504C907.4 453.804 907.3 453.204 906.9 453.004C906.7 452.904 906.5 452.904 906.4 453.004ZM962.1 424.204C961.9 424.304 961.8 424.504 961.6 424.704C961.2 425.304 961.1 426.004 961.4 426.404L967.5 433.704C967.8 434.104 968.4 433.904 968.8 433.304C969.2 432.704 969.3 432.004 969 431.604L962.9 424.304C962.7 424.004 962.4 424.004 962.1 424.204ZM898.4 458.804C898.2 458.904 897.9 459.204 897.8 459.504L894.9 465.104C894.6 465.704 894.6 466.404 895 466.704C895.4 466.904 895.9 466.604 896.3 466.004L899.2 460.404C899.5 459.804 899.5 459.104 899.1 458.804C898.9 458.604 898.7 458.704 898.4 458.804ZM970.1 421.604C969.9 421.704 969.6 421.904 969.4 422.204C969 422.804 969 423.504 969.3 423.804L972.2 426.304C972.5 426.604 973.1 426.304 973.5 425.704C973.9 425.104 973.9 424.404 973.6 424.104L970.7 421.604C970.5 421.504 970.3 421.504 970.1 421.604ZM914.9 454.704C914.5 454.904 914.2 455.304 914.1 455.804L909.8 469.804C909.6 470.504 909.8 471.004 910.3 471.004C910.8 471.004 911.3 470.504 911.5 469.804L915.8 455.804C916 455.104 915.8 454.604 915.3 454.604C915.2 454.604 915 454.704 914.9 454.704ZM953.5 434.704C953.4 434.804 953.3 434.904 953.1 435.004C952.6 435.504 952.4 436.304 952.6 436.704L956.8 446.304C957 446.804 957.5 446.704 958 446.204C958.5 445.704 958.7 444.904 958.5 444.504L954.3 434.904C954.2 434.604 953.9 434.604 953.5 434.704ZM907.5 462.304C907.2 462.504 906.9 462.804 906.8 463.204L904.6 469.104C904.3 469.804 904.5 470.404 904.9 470.504C905.3 470.604 905.9 470.104 906.1 469.404L908.3 463.504C908.6 462.804 908.4 462.204 908 462.104C907.8 462.104 907.6 462.204 907.5 462.304ZM961 434.504C960.8 434.604 960.6 434.704 960.5 434.904C960.1 435.404 959.9 436.204 960.2 436.604L962.4 440.204C962.7 440.604 963.2 440.504 963.6 440.004C964 439.504 964.2 438.704 963.9 438.304L961.7 434.704C961.6 434.404 961.3 434.304 961 434.504ZM924.4 453.604C924 453.804 923.6 454.404 923.5 455.004L921.3 468.804C921.2 469.504 921.5 469.904 922 469.804C922.5 469.704 923 469.004 923.1 468.404L925.3 454.604C925.4 453.904 925.1 453.504 924.6 453.604C924.5 453.604 924.4 453.604 924.4 453.604ZM944.1 443.404C944 443.404 944 443.504 943.9 443.504C943.4 443.904 943.1 444.604 943.2 445.204L945.4 456.704C945.5 457.304 946 457.404 946.5 457.004C947 456.604 947.3 455.904 947.2 455.304L945 443.804C944.9 443.404 944.5 443.204 944.1 443.404ZM934.2 449.804C933.7 450.104 933.3 450.804 933.3 451.404V464.304C933.3 464.904 933.7 465.204 934.2 465.004C934.7 464.704 935.1 464.004 935.1 463.404V450.504C935.1 449.804 934.7 449.604 934.2 449.804ZM917.6 462.604C917.2 462.804 916.9 463.304 916.8 463.804L915.4 469.704C915.2 470.404 915.5 470.904 916 470.804C916.5 470.704 917 470.204 917.1 469.504L918.5 463.604C918.7 462.904 918.4 462.404 917.9 462.504C917.9 462.504 917.8 462.504 917.6 462.604ZM950.8 445.404C950.7 445.404 950.6 445.504 950.4 445.604C949.9 446.004 949.7 446.804 949.8 447.304L951.2 451.804C951.4 452.304 951.9 452.404 952.3 451.904C952.7 451.404 953 450.704 952.9 450.204L951.5 445.704C951.5 445.404 951.2 445.204 950.8 445.404ZM928.6 459.804C928.2 460.104 927.8 460.704 927.8 461.204L927.3 466.904C927.2 467.504 927.6 467.904 928.1 467.704C928.6 467.504 929 466.804 929.1 466.204L929.6 460.504C929.7 459.904 929.3 459.504 928.8 459.704C928.7 459.804 928.6 459.804 928.6 459.804ZM939.9 454.004C939.8 454.004 939.8 454.104 939.7 454.104C939.2 454.404 938.8 455.204 938.9 455.804L939.4 461.004C939.5 461.604 939.9 461.804 940.4 461.504C940.9 461.204 941.3 460.404 941.2 459.804L940.7 454.604C940.7 454.004 940.3 453.804 939.9 454.004Z" fill="white"/>
<path d="M941.3 397.604L927.1 386.504L977.4 318.404L941.3 397.604Z" fill="#F58A6B" stroke="#010101" stroke-miterlimit="10" stroke-linecap="round" stroke-linejoin="round"/>
<path d="M941.3 397.604L927.1 386.504L891 465.704L941.3 397.604Z" fill="white" stroke="#010101" stroke-miterlimit="10"/>
<path d="M733.7 390.204C732.8 389.704 731.7 389.704 730.4 390.304L452.3 527.704C449.4 529.104 447 533.504 447 537.304V773.104C447 775.304 447.8 776.904 449 777.604L458.4 782.304L730.4 640.104C733.3 638.704 735.7 634.304 735.7 630.504L743.1 394.904L733.7 390.204Z" fill="#FFF6DB" stroke="#010101" stroke-miterlimit="10" stroke-linecap="round" stroke-linejoin="round"/>
<path d="M448.6 531.604C447.6 533.304 447.1 535.403 447.1 537.303V773.104C447.1 775.304 447.9 776.904 449.1 777.604L458.5 782.303L511.1 556.903" fill="url(#paint5_linear_931_61947)"/>
<path d="M448.6 531.604C447.6 533.304 447.1 535.403 447.1 537.303V773.104C447.1 775.304 447.9 776.904 449.1 777.604L458.5 782.303L511.1 556.903" stroke="#010101" stroke-miterlimit="10" stroke-linecap="round" stroke-linejoin="round"/>
<path d="M739.9 644.904L461.7 782.304C458.8 783.704 456.4 781.804 456.4 777.904V542.104C456.4 538.304 458.8 533.904 461.7 532.504L739.8 395.104C742.7 393.704 745.1 395.604 745.1 399.504V635.304C745.1 639.104 742.8 643.404 739.9 644.904Z" fill="white" stroke="#010101" stroke-miterlimit="10"/>
<path d="M479.432 549.361C481.591 544.098 480.773 538.778 477.605 537.478C474.437 536.178 470.119 539.391 467.959 544.654C465.8 549.917 466.617 555.237 469.786 556.537C472.954 557.837 477.272 554.624 479.432 549.361Z" fill="#F58A6B" stroke="#010101" stroke-miterlimit="10" stroke-linecap="round" stroke-linejoin="round"/>
<path d="M501.653 538.41C503.813 533.147 502.995 527.827 499.827 526.527C496.659 525.227 492.34 528.44 490.181 533.703C488.022 538.966 488.839 544.286 492.007 545.586C495.175 546.886 499.494 543.673 501.653 538.41Z" fill="#FFCE49" stroke="#010101" stroke-miterlimit="10" stroke-linecap="round" stroke-linejoin="round"/>
<path d="M523.913 527.366C526.072 522.103 525.254 516.783 522.086 515.483C518.918 514.183 514.6 517.396 512.44 522.659C510.281 527.922 511.098 533.242 514.266 534.542C517.435 535.842 521.753 532.629 523.913 527.366Z" fill="#62C089" stroke="#010101" stroke-miterlimit="10" stroke-linecap="round" stroke-linejoin="round"/>
<path d="M482.678 550.676C484.838 545.413 484.02 540.092 480.852 538.792C477.684 537.493 473.365 540.706 471.206 545.969C469.046 551.232 469.864 556.552 473.032 557.852C476.2 559.151 480.519 555.939 482.678 550.676Z" fill="#F58A6B" stroke="#010101" stroke-miterlimit="10" stroke-linecap="round" stroke-linejoin="round"/>
<path d="M504.992 539.762C507.152 534.499 506.334 529.179 503.166 527.879C499.998 526.58 495.679 529.792 493.52 535.055C491.36 540.318 492.178 545.639 495.346 546.938C498.514 548.238 502.833 545.025 504.992 539.762Z" fill="#FFCE49" stroke="#010101" stroke-miterlimit="10" stroke-linecap="round" stroke-linejoin="round"/>
<path d="M527.214 528.811C529.373 523.548 528.556 518.227 525.388 516.928C522.219 515.628 517.901 518.841 515.741 524.104C513.582 529.367 514.4 534.687 517.568 535.987C520.736 537.287 525.055 534.074 527.214 528.811Z" fill="#62C089" stroke="#010101" stroke-miterlimit="10" stroke-linecap="round" stroke-linejoin="round"/>
<path d="M655.635 538.822C653.081 532.635 648.073 527.234 644.047 526.645C646.895 531.948 648.859 538.233 649.841 545.205V545.303C643.36 528.609 632.263 526.056 623.229 513.094C622.738 512.406 622.345 511.817 621.854 511.032C621.56 510.639 621.363 510.246 621.265 509.853C620.872 509.166 620.578 508.38 620.382 507.497C620.382 507.398 620.283 507.398 620.283 507.398C620.283 507.398 620.185 507.398 620.185 507.497V507.398C605.652 525.074 600.742 546.776 600.349 556.694C601.036 556.301 601.724 555.908 602.411 555.516C612.918 550.311 622.542 552.373 627.648 561.015C623.622 559.64 618.614 560.622 613.704 563.863C634.424 566.219 628.925 612.863 600.153 625.629C597.599 626.808 595.046 627.397 592.689 627.593C592.1 627.593 591.609 627.593 591.02 627.593C590.726 627.593 590.333 627.593 590.038 627.495C589.744 627.495 589.449 627.397 589.154 627.397C589.449 627.397 589.645 627.495 589.94 627.495C582.87 626.513 577.076 621.014 576.389 611.096C576.389 611.096 579.04 597.545 595.439 589.394C597.207 588.51 602.313 579.869 602.411 578.101C602.411 577.512 592.395 577.61 588.467 574.861C586.405 573.388 585.423 572.7 584.539 572.209C584.048 571.915 583.557 571.718 583.066 571.522C581.79 566.514 581.691 560.622 582.87 554.337C577.567 560.131 572.853 567.005 569.024 574.468C566.765 572.013 566.863 560.229 567.06 557.676C566.372 558.363 565.783 559.051 565.096 559.935C563.034 562.684 561.168 565.63 559.498 568.674C557.535 572.111 555.767 575.646 554.098 579.28C550.366 587.627 547.715 596.17 546.34 604.615L546.242 605.106C546.143 605.793 545.652 609.23 545.554 609.918C545.063 613.453 544.867 616.89 544.67 620.228V620.621C544.769 659.704 570.595 678.46 602.411 662.454C630.398 648.411 654.358 611.685 659.17 575.352C659.268 574.37 659.366 573.486 659.464 572.504C660.545 559.935 659.268 548.347 655.635 538.822Z" fill="#F58A6B" stroke="#010101" stroke-width="0.981984" stroke-miterlimit="10" stroke-linecap="round" stroke-linejoin="round"/>
<path d="M602.313 578.199C602.214 579.967 597.108 588.608 595.341 589.492C578.941 597.643 576.29 611.194 576.29 611.194C576.977 621.112 582.869 626.611 589.841 627.593C590.136 627.593 590.529 627.691 590.823 627.691C591.413 627.691 591.904 627.691 592.493 627.691C594.948 627.495 597.403 626.906 599.956 625.727C628.728 613.06 634.227 566.317 613.507 563.961C618.417 560.72 623.327 559.738 627.451 561.113C622.247 552.471 612.623 550.409 602.214 555.614C601.527 555.908 600.84 556.399 600.152 556.792C594.358 560.131 588.859 565.532 584.244 572.209C585.128 572.7 586.11 573.388 588.172 574.861C592.296 577.708 602.313 577.61 602.313 578.199Z" fill="#8BB1DE" stroke="#010101" stroke-width="0.981984" stroke-miterlimit="10"/>
<path d="M576.29 611.194C576.29 611.194 578.942 597.643 595.341 589.492C597.109 588.608 602.215 579.967 602.313 578.199C595.243 584.877 587.485 588.412 580.709 588.019C573.934 587.233 565.98 591.554 559.499 599.705C561.953 605.007 567.354 606.48 573.148 603.436C572.068 615.515 577.076 626.513 589.154 627.593C589.449 627.593 589.645 627.691 589.94 627.691C582.87 626.611 577.076 621.112 576.29 611.194Z" fill="#FFD76D" stroke="#010101" stroke-width="0.981984" stroke-miterlimit="10" stroke-linecap="round" stroke-linejoin="round"/>
<path d="M1128.6 262.104C1127.8 261.704 1126.8 261.604 1125.7 262.204L1030.1 309.904C1027.5 311.204 1025.4 315.104 1025.4 318.504V529.904C1025.4 531.904 1026.1 533.304 1027.2 533.904L1035.6 538.104L1125.6 486.004C1128.2 484.704 1130.3 480.804 1130.3 477.404L1136.9 266.204L1128.6 262.104Z" fill="#FFF6DB" stroke="#010101" stroke-miterlimit="10" stroke-linecap="round" stroke-linejoin="round"/>
<path d="M1026.8 313.404C1025.9 315.004 1025.4 316.804 1025.4 318.504V529.904C1025.4 531.904 1026.1 533.304 1027.2 533.904L1035.6 538.104L1082.8 336.004" fill="url(#paint6_linear_931_61947)"/>
<path d="M1026.8 313.404C1025.9 315.004 1025.4 316.804 1025.4 318.504V529.904C1025.4 531.904 1026.1 533.304 1027.2 533.904L1035.6 538.104L1082.8 336.004" stroke="#010101" stroke-miterlimit="10" stroke-linecap="round" stroke-linejoin="round"/>
<path d="M1134.1 490.404L1038.5 538.104C1035.9 539.404 1033.8 537.604 1033.8 534.204V322.804C1033.8 319.404 1035.9 315.504 1038.5 314.204L1134.1 266.504C1136.7 265.204 1138.8 267.004 1138.8 270.404V481.804C1138.8 485.204 1136.7 489.104 1134.1 490.404Z" fill="white" stroke="#010101" stroke-miterlimit="10"/>
<path d="M1054.38 329.297C1056.31 324.597 1055.59 319.851 1052.78 318.698C1049.97 317.545 1046.13 320.421 1044.2 325.122C1042.27 329.823 1042.99 334.569 1045.8 335.722C1048.61 336.875 1052.45 333.998 1054.38 329.297Z" fill="#F58A6B" stroke="#010101" stroke-miterlimit="10" stroke-linecap="round" stroke-linejoin="round"/>
<path d="M1074.35 319.503C1076.28 314.802 1075.57 310.057 1072.76 308.903C1069.95 307.75 1066.11 310.626 1064.18 315.327C1062.25 320.028 1062.96 324.774 1065.77 325.927C1068.58 327.08 1072.43 324.204 1074.35 319.503Z" fill="#FFCE49" stroke="#010101" stroke-miterlimit="10" stroke-linecap="round" stroke-linejoin="round"/>
<path d="M1094.27 309.578C1096.2 304.877 1095.49 300.132 1092.68 298.979C1089.87 297.826 1086.03 300.702 1084.1 305.403C1082.17 310.104 1082.88 314.849 1085.69 316.002C1088.5 317.155 1092.34 314.279 1094.27 309.578Z" fill="#62C089" stroke="#010101" stroke-miterlimit="10" stroke-linecap="round" stroke-linejoin="round"/>
<path d="M1057.3 330.543C1059.23 325.842 1058.51 321.097 1055.7 319.943C1052.89 318.79 1049.05 321.667 1047.12 326.367C1045.19 331.068 1045.91 335.814 1048.72 336.967C1051.53 338.12 1055.37 335.244 1057.3 330.543Z" fill="#F58A6B" stroke="#010101" stroke-miterlimit="10" stroke-linecap="round" stroke-linejoin="round"/>
<path d="M1077.31 320.656C1079.24 315.955 1078.53 311.21 1075.72 310.057C1072.91 308.904 1069.06 311.78 1067.14 316.481C1065.21 321.182 1065.92 325.927 1068.73 327.08C1071.54 328.234 1075.38 325.357 1077.31 320.656Z" fill="#FFCE49" stroke="#010101" stroke-miterlimit="10" stroke-linecap="round" stroke-linejoin="round"/>
<path d="M1097.19 310.824C1099.12 306.123 1098.41 301.377 1095.6 300.224C1092.79 299.071 1088.95 301.947 1087.02 306.648C1085.09 311.349 1085.8 316.095 1088.61 317.248C1091.42 318.401 1095.27 315.525 1097.19 310.824Z" fill="#62C089" stroke="#010101" stroke-miterlimit="10" stroke-linecap="round" stroke-linejoin="round"/>
<path d="M1087.6 360.404C1070.1 369.004 1055.9 393.704 1055.9 415.604C1055.9 437.504 1070.1 448.304 1087.6 439.704C1105.1 431.104 1119.3 406.404 1119.3 384.504C1119.3 362.504 1105.1 351.804 1087.6 360.404ZM1087.6 424.204C1076.9 429.504 1068.2 422.904 1068.2 409.504C1068.2 396.104 1076.9 381.004 1087.6 375.704C1098.3 370.404 1107 377.004 1107 390.404C1107 403.904 1098.3 419.004 1087.6 424.204Z" fill="white" stroke="#010101" stroke-miterlimit="10"/>
<path d="M1087.6 360.404V375.804C1098.3 370.504 1107 377.104 1107 390.504C1107 403.904 1098.3 419.004 1087.6 424.304C1078.9 428.604 1071.6 425.004 1069.1 416.404L1057.4 426.804C1061.4 441.004 1073.4 446.804 1087.6 439.804C1105.1 431.204 1119.3 406.504 1119.3 384.604C1119.3 362.504 1105.1 351.804 1087.6 360.404Z" fill="#62C089" stroke="#010101" stroke-miterlimit="10" stroke-linecap="round" stroke-linejoin="round"/>
<path d="M970.9 407.104C970 406.604 968.9 406.604 967.6 407.204L689.5 544.604C686.6 546.004 684.2 550.404 684.2 554.204V766.504C684.2 768.704 685 770.303 686.2 771.004L695.6 775.704L967.6 633.503C970.5 632.104 972.9 627.704 972.9 623.904L980.3 411.804L970.9 407.104Z" fill="#FFF6DB" stroke="#010101" stroke-miterlimit="10" stroke-linecap="round" stroke-linejoin="round"/>
<path d="M685.7 548.503C684.7 550.203 684.2 552.303 684.2 554.203V766.503C684.2 768.703 685 770.303 686.2 771.003L695.6 775.703L748.2 573.803" fill="url(#paint7_linear_931_61947)"/>
<path d="M685.7 548.503C684.7 550.203 684.2 552.303 684.2 554.203V766.503C684.2 768.703 685 770.303 686.2 771.003L695.6 775.703L748.2 573.803" stroke="#010101" stroke-miterlimit="10" stroke-linecap="round" stroke-linejoin="round"/>
<path d="M977 638.204L698.9 775.604C696 777.004 693.6 775.104 693.6 771.204V558.904C693.6 555.104 696 550.704 698.9 549.304L977 411.904C979.9 410.504 982.3 412.404 982.3 416.304V628.604C982.3 632.404 979.9 636.804 977 638.204Z" fill="white" stroke="#010101" stroke-miterlimit="10"/>
<path d="M716.675 566.216C718.835 560.952 718.017 555.632 714.849 554.332C711.681 553.033 707.362 556.245 705.203 561.508C703.044 566.772 703.861 572.092 707.029 573.392C710.197 574.691 714.516 571.479 716.675 566.216Z" fill="#F58A6B" stroke="#010101" stroke-miterlimit="10" stroke-linecap="round" stroke-linejoin="round"/>
<path d="M738.897 555.264C741.056 550.001 740.239 544.681 737.071 543.381C733.903 542.081 729.584 545.294 727.425 550.557C725.265 555.82 726.083 561.14 729.251 562.44C732.419 563.74 736.738 560.527 738.897 555.264Z" fill="#FFCE49" stroke="#010101" stroke-miterlimit="10" stroke-linecap="round" stroke-linejoin="round"/>
<path d="M761.119 544.313C763.278 539.05 762.46 533.729 759.292 532.43C756.124 531.13 751.806 534.343 749.646 539.606C747.487 544.869 748.304 550.189 751.473 551.489C754.641 552.789 758.959 549.576 761.119 544.313Z" fill="#62C089" stroke="#010101" stroke-miterlimit="10" stroke-linecap="round" stroke-linejoin="round"/>
<path d="M719.884 567.622C722.044 562.359 721.226 557.039 718.058 555.739C714.89 554.439 710.571 557.652 708.412 562.915C706.252 568.178 707.07 573.499 710.238 574.798C713.406 576.098 717.725 572.885 719.884 567.622Z" fill="#F58A6B" stroke="#010101" stroke-miterlimit="10" stroke-linecap="round" stroke-linejoin="round"/>
<path d="M742.144 556.579C744.303 551.316 743.486 545.996 740.318 544.696C737.15 543.396 732.831 546.609 730.672 551.872C728.512 557.135 729.33 562.455 732.498 563.755C735.666 565.055 739.985 561.842 742.144 556.579Z" fill="#FFCE49" stroke="#010101" stroke-miterlimit="10" stroke-linecap="round" stroke-linejoin="round"/>
<path d="M764.366 545.627C766.525 540.364 765.707 535.044 762.539 533.744C759.371 532.444 755.053 535.657 752.893 540.92C750.734 546.183 751.552 551.503 754.72 552.803C757.888 554.103 762.206 550.89 764.366 545.627Z" fill="#62C089" stroke="#010101" stroke-miterlimit="10" stroke-linecap="round" stroke-linejoin="round"/>
<path d="M811.9 607.604C811.9 588.804 824.3 567.304 839.7 559.604C842.6 558.204 845.4 557.304 848 557.004L891.6 535.204C881.9 516.804 862.3 510.804 839.6 522.104C819 532.404 800.9 554.604 790.5 579.604V634.604L815.2 622.304C813.1 618.504 811.9 613.504 811.9 607.604Z" fill="#F58A6B" stroke="#010101" stroke-miterlimit="10" stroke-linecap="round" stroke-linejoin="round"/>
<path d="M839.6 627.903C826.4 634.503 815.4 628.703 812.5 615.003L790.5 579.604C784.6 593.704 781.2 608.703 781.2 622.903C781.2 661.303 805.9 680.403 836.8 666.703L862.5 622.303V601.503C857.6 613.003 849.2 623.103 839.6 627.903Z" fill="#62C089" stroke="#010101" stroke-miterlimit="10" stroke-linecap="round" stroke-linejoin="round"/>
<path d="M891.6 535.204L848 557.004C859.3 555.704 867.5 564.504 867.5 579.804C867.5 589.604 864.1 600.204 858.7 609.104L837 666.604C837.9 666.204 838.8 665.804 839.8 665.304C872 649.204 898.1 604.104 898.1 564.504C898 552.904 895.7 543.004 891.6 535.204Z" fill="#FFD76D" stroke="#010101" stroke-miterlimit="10" stroke-linecap="round" stroke-linejoin="round"/>
<path d="M856.202 602.05C863.598 587.162 862.216 571.427 853.115 566.906C844.013 562.385 830.64 570.789 823.244 585.678C815.848 600.566 817.23 616.3 826.332 620.821C835.433 625.343 848.806 616.938 856.202 602.05Z" fill="#8BB1DE" stroke="#010101" stroke-miterlimit="10"/>
<path d="M331 353.204L547 464.304" stroke="white" stroke-miterlimit="10"/>
<path d="M410 164.804L626.1 275.804" stroke="white" stroke-miterlimit="10"/>
<path d="M451.5 353.204L667.5 464.304" stroke="white" stroke-miterlimit="10"/>
<path d="M857.2 137.604L1073.2 248.703" stroke="white" stroke-miterlimit="10"/>
<path d="M196.6 417.604L585.4 617.503" stroke="white" stroke-miterlimit="10"/>
<path d="M149.6 590.104L538.4 790.003" stroke="white" stroke-miterlimit="10"/>
<path d="M556 137.604L944.8 337.503" stroke="white" stroke-miterlimit="10"/>
<path d="M735.4 137.604L1124.2 337.503" stroke="white" stroke-miterlimit="10"/>
<path d="M290.8 327.204L241.4 308.704" stroke="#010101" stroke-miterlimit="10" stroke-linecap="round" stroke-linejoin="round"/>
<path d="M47.3 351.004C40.3 358.504 34 366.504 28.9 375.404C23.8 384.204 19.6 393.504 16.5 403.304C10.4 422.804 8.4 443.604 10.8 463.904C12.2 475.204 15.1 486.304 19.3 496.804C21.3 501.904 28.3 504.604 33.3 502.104C38.6 499.404 40.8 493.604 38.6 488.104C37.3 484.804 36.1 481.404 35.1 478.004C35.4 478.904 35.6 479.704 35.9 480.604C34.1 474.404 32.7 468.104 31.9 461.704C31.5 458.604 31.2 455.404 31 452.304C31 451.504 30.9 450.804 30.9 450.004C30.8 448.404 30.9 451.104 30.9 451.204C30.9 450.804 30.9 450.304 30.9 449.904C30.9 448.304 30.9 446.704 30.9 445.104C31 438.604 31.6 432.204 32.7 425.804C33 424.304 33.2 422.804 33.5 421.304C33.7 420.504 33.8 419.804 34 419.104C34.3 417.804 33.3 421.904 33.8 420.004C33.9 419.504 34 419.004 34.2 418.504C35 415.404 35.8 412.404 36.8 409.404C39 402.504 41.8 395.804 45.2 389.404C44.8 390.204 44.4 391.004 43.9 391.804C48.9 382.304 55 373.504 62.3 365.604C61.7 366.304 61 367.004 60.4 367.704C60.5 367.604 60.6 367.504 60.7 367.304C62.7 365.104 64.2 363.204 64.5 360.204C64.7 357.604 63.9 354.404 62.1 352.504C60.3 350.504 57.8 348.904 55 348.704C52.5 348.504 49.2 349.004 47.3 351.004Z" fill="white"/>
<path d="M493.063 30.5652C493.463 30.4652 493.763 30.2652 494.163 30.1652C493.563 30.3652 492.964 30.5653 492.364 30.7653C497.664 28.9653 503.263 27.7652 508.963 27.1652C508.263 27.2652 507.663 27.2652 506.963 27.3652C512.963 26.7652 518.963 26.7652 524.963 27.3652C524.263 27.2652 523.663 27.2652 522.963 27.1652C528.763 27.7652 534.463 29.0652 539.963 30.8652C539.363 30.6652 538.763 30.4653 538.163 30.2653C540.463 31.0653 542.763 31.9652 544.963 32.9652C548.263 34.4652 553.163 33.6652 555.063 30.8652C556.863 28.0652 555.963 24.4653 552.463 22.8652C536.663 15.7652 517.963 13.6652 500.163 16.5652C495.063 17.3652 490.163 18.7652 485.463 20.4652C483.863 21.0652 482.563 22.6652 482.063 23.9652C481.563 25.3652 481.763 27.2652 482.763 28.4652C483.763 29.6652 485.263 30.8652 487.163 31.1652C489.463 31.4652 491.163 31.2652 493.063 30.5652Z" fill="white"/>
<defs>
<linearGradient id="paint0_linear_931_61947" x1="810.97" y1="686.001" x2="477.04" y2="107.616" gradientUnits="userSpaceOnUse">
<stop stop-color="white"/>
<stop offset="0.5503" stop-color="#C2D4CD"/>
</linearGradient>
<linearGradient id="paint1_linear_931_61947" x1="195.972" y1="655.052" x2="605.456" y2="-54.1938" gradientUnits="userSpaceOnUse">
<stop offset="0.1229" stop-color="#DFEDE8"/>
<stop offset="0.2039" stop-color="#FBFEFF"/>
<stop offset="0.6089" stop-color="white"/>
<stop offset="0.6123" stop-color="#FEFEFE"/>
<stop offset="0.7405" stop-color="#E6F1ED"/>
<stop offset="0.824" stop-color="#DFEDE8"/>
</linearGradient>
<linearGradient id="paint2_linear_931_61947" x1="401.966" y1="446.504" x2="401.966" y2="609.8" gradientUnits="userSpaceOnUse">
<stop offset="0.1983" stop-color="#FFF6DB"/>
<stop offset="1" stop-color="#A1A7A7"/>
</linearGradient>
<linearGradient id="paint3_linear_931_61947" x1="710.71" y1="299.62" x2="710.71" y2="550.363" gradientUnits="userSpaceOnUse">
<stop offset="0.1983" stop-color="#FFF6DB"/>
<stop offset="1" stop-color="#A1A7A7"/>
</linearGradient>
<linearGradient id="paint4_linear_931_61947" x1="875.078" y1="290.122" x2="875.078" y2="540.864" gradientUnits="userSpaceOnUse">
<stop offset="0.1983" stop-color="#FFF6DB"/>
<stop offset="1" stop-color="#A1A7A7"/>
</linearGradient>
<linearGradient id="paint5_linear_931_61947" x1="479.032" y1="531.62" x2="479.032" y2="782.363" gradientUnits="userSpaceOnUse">
<stop offset="0.1983" stop-color="#FFF6DB"/>
<stop offset="1" stop-color="#A1A7A7"/>
</linearGradient>
<linearGradient id="paint6_linear_931_61947" x1="1054.08" y1="313.449" x2="1054.08" y2="538.201" gradientUnits="userSpaceOnUse">
<stop offset="0.1983" stop-color="#FFF6DB"/>
<stop offset="1" stop-color="#A1A7A7"/>
</linearGradient>
<linearGradient id="paint7_linear_931_61947" x1="716.219" y1="548.477" x2="716.219" y2="775.685" gradientUnits="userSpaceOnUse">
<stop offset="0.1983" stop-color="#FFF6DB"/>
<stop offset="1" stop-color="#A1A7A7"/>
</linearGradient>
</defs>
</svg>
