
<svg width="247" height="247" viewBox="0 0 247 247" fill="none" xmlns="http://www.w3.org/2000/svg">
<g filter="url(#filter0_d_468_1264)">
<circle cx="123.5" cy="119.5" r="89.5" fill="white"/>
</g>
<g filter="url(#filter1_d_468_1264)">
<circle cx="123.5" cy="119.5" r="69.5" fill="white"/>
</g>
<g filter="url(#filter2_d_468_1264)">
<circle cx="123.5" cy="119.5" r="48.5" fill="white"/>
</g>
<path d="M140.153 139.455L138.119 133.351C137.77 132.305 137.147 131.372 136.313 130.649C135.48 129.927 134.468 129.442 133.383 129.244L127.51 128.176V127.72C128.532 127.127 129.422 126.334 130.13 125.394H131.904C133.358 125.394 134.541 124.211 134.541 122.758V112.212C134.541 105.913 129.415 100.788 123.116 100.788C116.817 100.788 111.692 105.913 111.692 112.212V118.364C111.692 120.058 112.897 121.476 114.494 121.806C114.987 124.332 116.566 126.469 118.722 127.72V128.176L112.848 129.244C111.763 129.442 110.751 129.927 109.918 130.649C109.085 131.372 108.462 132.305 108.113 133.351L107.762 134.406L104.769 131.413C104.426 131.07 104.426 130.512 104.769 130.17L108.24 126.699L101.724 120.184L97.8015 124.107C96.6398 125.269 96 126.814 96 128.457C96 130.1 96.6398 131.644 97.8015 132.806L109.678 144.683C110.84 145.845 112.385 146.485 114.029 146.485C115.672 146.485 117.216 145.845 118.35 144.709L122.631 140.787L121.296 139.455H140.153ZM132.783 122.758C132.783 123.243 132.388 123.637 131.904 123.637H131.165C131.423 123.049 131.615 122.436 131.738 121.806C132.114 121.728 132.46 121.579 132.783 121.391V122.758ZM131.904 119.877V116.851C132.427 117.156 132.783 117.716 132.783 118.364C132.783 119.012 132.427 119.572 131.904 119.877ZM114.328 119.877C113.805 119.572 113.449 119.012 113.449 118.364C113.449 117.716 113.805 117.156 114.328 116.851V119.877ZM114.328 113.97V114.974C114.02 115.054 113.724 115.176 113.449 115.337V112.212C113.449 106.882 117.786 102.546 123.116 102.546C128.446 102.546 132.783 106.882 132.783 112.212V115.337C132.508 115.176 132.212 115.054 131.904 114.974V113.97H131.025C128.427 113.97 125.984 112.958 124.145 111.12L123.116 110.091L122.087 111.12C120.249 112.958 117.806 113.97 115.207 113.97H114.328ZM116.086 120.122V115.694C118.725 115.496 121.185 114.407 123.116 112.571C125.047 114.407 127.508 115.496 130.147 115.694V120.122C130.147 121.403 129.797 122.601 129.196 123.637H123.116V125.394H127.751C126.512 126.485 124.892 127.152 123.116 127.152C119.24 127.152 116.086 123.998 116.086 120.122ZM125.753 128.504V128.546L123.116 131.182L120.48 128.546V128.504C121.313 128.766 122.198 128.91 123.116 128.91C124.035 128.91 124.919 128.766 125.753 128.504ZM109.78 133.906C110.029 133.159 110.474 132.492 111.069 131.976C111.664 131.46 112.387 131.113 113.162 130.972L119.305 129.856L123.116 133.667L126.927 129.857L133.069 130.973C133.844 131.114 134.567 131.461 135.162 131.977C135.757 132.493 136.202 133.16 136.451 133.907L137.716 137.697H119.539L116.116 134.275L112.312 137.715C111.981 138.048 111.402 138.048 111.07 137.715L109.15 135.796L109.78 133.906ZM101.724 122.669L105.754 126.699L104.799 127.654L100.769 123.624L101.724 122.669ZM117.133 143.442C116.304 144.27 115.2 144.728 114.027 144.728C112.854 144.728 111.75 144.27 110.919 143.44L99.0424 131.564C98.2128 130.735 97.7558 129.631 97.7558 128.458C97.7558 127.284 98.2128 126.18 99.0424 125.35L99.5257 124.867L103.556 128.897L103.524 128.929C102.497 129.957 102.497 131.629 103.524 132.658L109.826 138.959C110.324 139.457 110.986 139.732 111.691 139.732C112.396 139.732 113.057 139.458 113.523 138.99L113.589 138.931L117.638 142.98L117.133 143.442ZM118.935 141.79L114.895 137.75L116.056 136.701L120.089 140.734L118.935 141.79ZM147.723 92H135.419C133.966 92 132.783 93.1829 132.783 94.6364V101.667C132.783 103.12 133.966 104.303 135.419 104.303H137.767L136.858 109.603L145.338 104.303H147.723C149.176 104.303 150.359 103.12 150.359 101.667V94.6364C150.359 93.1829 149.176 92 147.723 92ZM148.601 101.667C148.601 102.151 148.207 102.546 147.723 102.546H144.834L139.253 106.034L139.851 102.546H135.419C134.935 102.546 134.541 102.151 134.541 101.667V94.6364C134.541 94.1522 134.935 93.7576 135.419 93.7576H147.723C148.207 93.7576 148.601 94.1522 148.601 94.6364V101.667Z" fill="black"/>
<path d="M136.299 95.515H146.845V97.2726H136.299V95.515ZM136.299 99.0302H143.329V100.788H136.299V99.0302ZM145.087 99.0302H146.845V100.788H145.087V99.0302ZM123.117 94.6362C111.635 94.6362 101.744 102.579 99.1725 113.658L97.5071 110.882L96 111.786L99.089 116.933L104.236 113.844L103.332 112.337L100.95 113.766C103.441 103.631 112.555 96.3938 123.117 96.3938C125.426 96.3938 127.704 96.7366 129.887 97.4132L130.408 95.7347C128.055 95.0053 125.602 94.6362 123.117 94.6362ZM149.933 111.458L144.786 108.369L141.697 113.517L143.205 114.421L144.743 111.858C145.552 114.226 145.966 116.704 145.966 119.243C145.966 124.469 144.155 129.578 140.87 133.628L142.234 134.736C145.774 130.373 147.723 124.87 147.723 119.243C147.723 116.554 147.29 113.929 146.446 111.416L149.028 112.965L149.933 111.458Z" fill="black"/>
<defs>
<filter id="filter0_d_468_1264" x="0" y="0" width="247" height="247" filterUnits="userSpaceOnUse" color-interpolation-filters="sRGB">
<feFlood flood-opacity="0" result="BackgroundImageFix"/>
<feColorMatrix in="SourceAlpha" type="matrix" values="0 0 0 0 0 0 0 0 0 0 0 0 0 0 0 0 0 0 127 0" result="hardAlpha"/>
<feOffset dy="4"/>
<feGaussianBlur stdDeviation="17"/>
<feComposite in2="hardAlpha" operator="out"/>
<feColorMatrix type="matrix" values="0 0 0 0 0 0 0 0 0 0 0 0 0 0 0 0 0 0 0.09 0"/>
<feBlend mode="normal" in2="BackgroundImageFix" result="effect1_dropShadow_468_1264"/>
<feBlend mode="normal" in="SourceGraphic" in2="effect1_dropShadow_468_1264" result="shape"/>
</filter>
<filter id="filter1_d_468_1264" x="20" y="20" width="207" height="207" filterUnits="userSpaceOnUse" color-interpolation-filters="sRGB">
<feFlood flood-opacity="0" result="BackgroundImageFix"/>
<feColorMatrix in="SourceAlpha" type="matrix" values="0 0 0 0 0 0 0 0 0 0 0 0 0 0 0 0 0 0 127 0" result="hardAlpha"/>
<feOffset dy="4"/>
<feGaussianBlur stdDeviation="17"/>
<feComposite in2="hardAlpha" operator="out"/>
<feColorMatrix type="matrix" values="0 0 0 0 0 0 0 0 0 0 0 0 0 0 0 0 0 0 0.09 0"/>
<feBlend mode="normal" in2="BackgroundImageFix" result="effect1_dropShadow_468_1264"/>
<feBlend mode="normal" in="SourceGraphic" in2="effect1_dropShadow_468_1264" result="shape"/>
</filter>
<filter id="filter2_d_468_1264" x="41" y="41" width="165" height="165" filterUnits="userSpaceOnUse" color-interpolation-filters="sRGB">
<feFlood flood-opacity="0" result="BackgroundImageFix"/>
<feColorMatrix in="SourceAlpha" type="matrix" values="0 0 0 0 0 0 0 0 0 0 0 0 0 0 0 0 0 0 127 0" result="hardAlpha"/>
<feOffset dy="4"/>
<feGaussianBlur stdDeviation="17"/>
<feComposite in2="hardAlpha" operator="out"/>
<feColorMatrix type="matrix" values="0 0 0 0 0 0 0 0 0 0 0 0 0 0 0 0 0 0 0.2 0"/>
<feBlend mode="normal" in2="BackgroundImageFix" result="effect1_dropShadow_468_1264"/>
<feBlend mode="normal" in="SourceGraphic" in2="effect1_dropShadow_468_1264" result="shape"/>
</filter>
</defs>
</svg>
