
<svg width="247" height="247" viewBox="0 0 247 247" fill="none" xmlns="http://www.w3.org/2000/svg">
<g filter="url(#filter0_d_468_1255)">
<circle cx="123.5" cy="119.5" r="89.5" fill="white"/>
</g>
<g filter="url(#filter1_d_468_1255)">
<circle cx="123.5" cy="119.5" r="69.5" fill="white"/>
</g>
<g filter="url(#filter2_d_468_1255)">
<circle cx="123.5" cy="119.5" r="48.5" fill="white"/>
</g>
<path d="M114.665 131.133H112.799C112.551 131.133 112.314 131.232 112.139 131.407C111.964 131.582 111.865 131.819 111.865 132.067C111.865 132.314 111.964 132.552 112.139 132.727C112.314 132.902 112.551 133 112.799 133H114.665C114.913 133 115.15 132.902 115.325 132.727C115.5 132.552 115.599 132.314 115.599 132.067C115.599 131.819 115.5 131.582 115.325 131.407C115.15 131.232 114.913 131.133 114.665 131.133ZM140.799 131.133H118.399C118.151 131.133 117.914 131.232 117.739 131.407C117.564 131.582 117.465 131.819 117.465 132.067C117.465 132.314 117.564 132.552 117.739 132.727C117.914 132.902 118.151 133 118.399 133H140.799C141.046 133 141.284 132.902 141.459 132.727C141.634 132.552 141.732 132.314 141.732 132.067C141.732 131.819 141.634 131.582 141.459 131.407C141.284 131.232 141.046 131.133 140.799 131.133ZM114.665 125.533H112.799C112.551 125.533 112.314 125.632 112.139 125.807C111.964 125.982 111.865 126.219 111.865 126.467C111.865 126.714 111.964 126.952 112.139 127.127C112.314 127.302 112.551 127.4 112.799 127.4H114.665C114.913 127.4 115.15 127.302 115.325 127.127C115.5 126.952 115.599 126.714 115.599 126.467C115.599 126.219 115.5 125.982 115.325 125.807C115.15 125.632 114.913 125.533 114.665 125.533ZM140.799 125.533H118.399C118.151 125.533 117.914 125.632 117.739 125.807C117.564 125.982 117.465 126.219 117.465 126.467C117.465 126.714 117.564 126.952 117.739 127.127C117.914 127.302 118.151 127.4 118.399 127.4H140.799C141.046 127.4 141.284 127.302 141.459 127.127C141.634 126.952 141.732 126.714 141.732 126.467C141.732 126.219 141.634 125.982 141.459 125.807C141.284 125.632 141.046 125.533 140.799 125.533ZM114.665 119.933H112.799C112.551 119.933 112.314 120.032 112.139 120.207C111.964 120.382 111.865 120.619 111.865 120.867C111.865 121.114 111.964 121.352 112.139 121.527C112.314 121.702 112.551 121.8 112.799 121.8H114.665C114.913 121.8 115.15 121.702 115.325 121.527C115.5 121.352 115.599 121.114 115.599 120.867C115.599 120.619 115.5 120.382 115.325 120.207C115.15 120.032 114.913 119.933 114.665 119.933ZM140.799 119.933H118.399C118.151 119.933 117.914 120.032 117.739 120.207C117.564 120.382 117.465 120.619 117.465 120.867C117.465 121.114 117.564 121.352 117.739 121.527C117.914 121.702 118.151 121.8 118.399 121.8H140.799C141.046 121.8 141.284 121.702 141.459 121.527C141.634 121.352 141.732 121.114 141.732 120.867C141.732 120.619 141.634 120.382 141.459 120.207C141.284 120.032 141.046 119.933 140.799 119.933ZM114.665 114.333H112.799C112.551 114.333 112.314 114.432 112.139 114.607C111.964 114.782 111.865 115.019 111.865 115.267C111.865 115.514 111.964 115.752 112.139 115.927C112.314 116.102 112.551 116.2 112.799 116.2H114.665C114.913 116.2 115.15 116.102 115.325 115.927C115.5 115.752 115.599 115.514 115.599 115.267C115.599 115.019 115.5 114.782 115.325 114.607C115.15 114.432 114.913 114.333 114.665 114.333ZM140.799 114.333H118.399C118.151 114.333 117.914 114.432 117.739 114.607C117.564 114.782 117.465 115.019 117.465 115.267C117.465 115.514 117.564 115.752 117.739 115.927C117.914 116.102 118.151 116.2 118.399 116.2H140.799C141.046 116.2 141.284 116.102 141.459 115.927C141.634 115.752 141.732 115.514 141.732 115.267C141.732 115.019 141.634 114.782 141.459 114.607C141.284 114.432 141.046 114.333 140.799 114.333ZM114.665 108.733H112.799C112.551 108.733 112.314 108.832 112.139 109.007C111.964 109.182 111.865 109.419 111.865 109.667C111.865 109.914 111.964 110.152 112.139 110.327C112.314 110.502 112.551 110.6 112.799 110.6H114.665C114.913 110.6 115.15 110.502 115.325 110.327C115.5 110.152 115.599 109.914 115.599 109.667C115.599 109.419 115.5 109.182 115.325 109.007C115.15 108.832 114.913 108.733 114.665 108.733ZM140.799 108.733H118.399C118.151 108.733 117.914 108.832 117.739 109.007C117.564 109.182 117.465 109.419 117.465 109.667C117.465 109.914 117.564 110.152 117.739 110.327C117.914 110.502 118.151 110.6 118.399 110.6H140.799C141.046 110.6 141.284 110.502 141.459 110.327C141.634 110.152 141.732 109.914 141.732 109.667C141.732 109.419 141.634 109.182 141.459 109.007C141.284 108.832 141.046 108.733 140.799 108.733Z" fill="black"/>
<path d="M147.321 104.941C147.316 104.859 147.3 104.779 147.273 104.701C147.263 104.671 147.255 104.643 147.242 104.614C147.197 104.512 147.134 104.419 147.055 104.34L133.989 91.2735C133.91 91.1954 133.817 91.1322 133.715 91.0868C133.686 91.0737 133.657 91.0663 133.629 91.056C133.55 91.0292 133.469 91.0128 133.387 91.0075C133.371 91.0103 133.353 91 133.333 91H107.199C106.952 91 106.714 91.0983 106.539 91.2734C106.364 91.4484 106.266 91.6858 106.266 91.9333V94.7333H101.599C101.352 94.7333 101.114 94.8317 100.939 95.0067C100.764 95.1817 100.666 95.4191 100.666 95.6667V146.067C100.666 146.314 100.764 146.552 100.939 146.727C101.114 146.902 101.352 147 101.599 147H140.799C141.047 147 141.284 146.902 141.459 146.727C141.634 146.552 141.733 146.314 141.733 146.067V141.4H146.399C146.647 141.4 146.884 141.302 147.059 141.127C147.234 140.952 147.333 140.714 147.333 140.467V105C147.333 104.979 147.322 104.962 147.321 104.941ZM134.266 94.1864L144.146 104.067H134.266V94.1864ZM139.866 145.133H102.533V96.6H106.266V140.467C106.266 140.714 106.364 140.952 106.539 141.127C106.714 141.302 106.952 141.4 107.199 141.4H139.866V145.133ZM145.466 139.533H108.133V92.8667H132.399V105C132.399 105.248 132.498 105.485 132.673 105.66C132.848 105.835 133.085 105.933 133.333 105.933H145.466V139.533Z" fill="black"/>
<path d="M118.399 99.3999H112.799C112.551 99.3999 112.314 99.4982 112.139 99.6733C111.964 99.8483 111.865 100.086 111.865 100.333V105.933C111.865 106.181 111.964 106.418 112.139 106.593C112.314 106.768 112.551 106.867 112.799 106.867H118.399C118.646 106.867 118.884 106.768 119.059 106.593C119.234 106.418 119.332 106.181 119.332 105.933V100.333C119.332 100.086 119.234 99.8483 119.059 99.6733C118.884 99.4982 118.646 99.3999 118.399 99.3999ZM117.465 105H113.732V101.267H117.465V105Z" fill="black"/>
<defs>
<filter id="filter0_d_468_1255" x="0" y="0" width="247" height="247" filterUnits="userSpaceOnUse" color-interpolation-filters="sRGB">
<feFlood flood-opacity="0" result="BackgroundImageFix"/>
<feColorMatrix in="SourceAlpha" type="matrix" values="0 0 0 0 0 0 0 0 0 0 0 0 0 0 0 0 0 0 127 0" result="hardAlpha"/>
<feOffset dy="4"/>
<feGaussianBlur stdDeviation="17"/>
<feComposite in2="hardAlpha" operator="out"/>
<feColorMatrix type="matrix" values="0 0 0 0 0 0 0 0 0 0 0 0 0 0 0 0 0 0 0.09 0"/>
<feBlend mode="normal" in2="BackgroundImageFix" result="effect1_dropShadow_468_1255"/>
<feBlend mode="normal" in="SourceGraphic" in2="effect1_dropShadow_468_1255" result="shape"/>
</filter>
<filter id="filter1_d_468_1255" x="20" y="20" width="207" height="207" filterUnits="userSpaceOnUse" color-interpolation-filters="sRGB">
<feFlood flood-opacity="0" result="BackgroundImageFix"/>
<feColorMatrix in="SourceAlpha" type="matrix" values="0 0 0 0 0 0 0 0 0 0 0 0 0 0 0 0 0 0 127 0" result="hardAlpha"/>
<feOffset dy="4"/>
<feGaussianBlur stdDeviation="17"/>
<feComposite in2="hardAlpha" operator="out"/>
<feColorMatrix type="matrix" values="0 0 0 0 0 0 0 0 0 0 0 0 0 0 0 0 0 0 0.09 0"/>
<feBlend mode="normal" in2="BackgroundImageFix" result="effect1_dropShadow_468_1255"/>
<feBlend mode="normal" in="SourceGraphic" in2="effect1_dropShadow_468_1255" result="shape"/>
</filter>
<filter id="filter2_d_468_1255" x="41" y="41" width="165" height="165" filterUnits="userSpaceOnUse" color-interpolation-filters="sRGB">
<feFlood flood-opacity="0" result="BackgroundImageFix"/>
<feColorMatrix in="SourceAlpha" type="matrix" values="0 0 0 0 0 0 0 0 0 0 0 0 0 0 0 0 0 0 127 0" result="hardAlpha"/>
<feOffset dy="4"/>
<feGaussianBlur stdDeviation="17"/>
<feComposite in2="hardAlpha" operator="out"/>
<feColorMatrix type="matrix" values="0 0 0 0 0 0 0 0 0 0 0 0 0 0 0 0 0 0 0.2 0"/>
<feBlend mode="normal" in2="BackgroundImageFix" result="effect1_dropShadow_468_1255"/>
<feBlend mode="normal" in="SourceGraphic" in2="effect1_dropShadow_468_1255" result="shape"/>
</filter>
</defs>
</svg>
